<svg overflow="visible" viewBox="0 0 24 24" fill="none" xmlns="http://www.w3.org/2000/svg">
<g>

<g>
<path d="M5 20V17.5L18.2135 4.29225C18.3237 4.18208 18.4397 4.10583 18.5615 4.0635C18.6833 4.02117 18.8052 4 18.927 4C19.0527 4 19.1786 4.02117 19.3048 4.0635C19.4311 4.10583 19.541 4.18208 19.6345 4.29225L20.7078 5.3655C20.8179 5.459 20.8942 5.56892 20.9365 5.69525C20.9788 5.82142 21 5.94733 21 6.073C21 6.19483 20.9788 6.31667 20.9365 6.4385C20.8942 6.56033 20.8179 6.67633 20.7078 6.7865L7.5 20H5ZM6 19H7.073L17.6288 8.45L17.102 7.898L16.55 7.37125L6 17.927V19ZM17.102 7.898L16.55 7.37125L17.6288 8.45L17.102 7.898ZM14.2693 20C15.3744 20 16.4007 19.7365 17.348 19.2095C18.2955 18.6827 18.7693 17.9462 18.7693 17C18.7693 16.4257 18.5757 15.9154 18.1885 15.4692C17.8013 15.0231 17.2385 14.6545 16.5 14.3635L15.7365 15.127C16.3763 15.3448 16.8751 15.6147 17.2327 15.9365C17.5904 16.2583 17.7693 16.6128 17.7693 17C17.7693 17.5628 17.4234 18.0368 16.7318 18.422C16.0401 18.8073 15.2193 19 14.2693 19C14.1269 19 14.008 19.0477 13.9125 19.1432C13.817 19.2387 13.7693 19.3577 13.7693 19.5C13.7693 19.6423 13.817 19.7613 13.9125 19.8568C14.008 19.9523 14.1269 20 14.2693 20ZM5.6135 13.523L6.34425 12.773C5.89558 12.5757 5.55933 12.3709 5.3355 12.1588C5.11183 11.9466 5 11.727 5 11.5C5 11.1975 5.18525 10.9013 5.55575 10.6115C5.92625 10.3218 6.62692 9.95583 7.65775 9.5135C8.97058 8.957 9.85583 8.45567 10.3135 8.0095C10.7712 7.5635 11 7.06033 11 6.5C11 5.77567 10.675 5.17792 10.025 4.70675C9.375 4.23558 8.53333 4 7.5 4C6.87817 4 6.2875 4.11408 5.728 4.34225C5.16833 4.57042 4.76217 4.85058 4.5095 5.18275C4.416 5.29675 4.37633 5.41983 4.3905 5.552C4.4045 5.684 4.46858 5.79483 4.58275 5.8845C4.69675 5.96533 4.81658 5.99867 4.94225 5.9845C5.06792 5.9705 5.17758 5.91667 5.27125 5.823C5.54292 5.55133 5.86533 5.34625 6.2385 5.20775C6.6115 5.06925 7.032 5 7.5 5C8.28583 5 8.899 5.14808 9.3395 5.44425C9.77983 5.74042 10 6.09233 10 6.5C10 6.84867 9.81567 7.16375 9.447 7.44525C9.0785 7.72658 8.35 8.10892 7.2615 8.59225C6.018 9.13708 5.1635 9.61817 4.698 10.0355C4.23267 10.4528 4 10.941 4 11.5C4 11.9052 4.1385 12.276 4.4155 12.6125C4.69233 12.949 5.09167 13.2525 5.6135 13.523Z" fill="currentColor"/>
</g>
</g>
</svg>
