<svg overflow="visible" viewBox="0 0 24 24" fill="none" xmlns="http://www.w3.org/2000/svg">
<g>

<g>
<path d="M8.88175 20.6259C7.91192 20.2086 7.0645 19.6374 6.3395 18.9124C5.6145 18.1874 5.04333 17.34 4.626 16.3702C4.20867 15.4004 4 14.3609 4 13.2519C4 12.1429 4.20867 11.1035 4.626 10.1337C5.04333 9.16386 5.6145 8.31644 6.3395 7.59144C7.0645 6.86644 7.91192 6.29527 8.88175 5.87794C9.85158 5.4606 10.891 5.25194 12 5.25194H12.3808L10.7155 3.58644L11.423 2.86719L14.3077 5.73269L11.4615 8.59819L10.7537 7.87894L12.3808 6.25194H12C10.05 6.25194 8.39583 6.9311 7.0375 8.28944C5.67917 9.64777 5 11.3019 5 13.2519C5 15.2019 5.67917 16.8561 7.0375 18.2144C8.39583 19.5728 10.05 20.2519 12 20.2519C13.95 20.2519 15.6042 19.5728 16.9625 18.2144C18.3208 16.8561 19 15.2019 19 13.2519H20C20 14.3609 19.7913 15.4004 19.374 16.3702C18.9567 17.34 18.3855 18.1874 17.6605 18.9124C16.9355 19.6374 16.0881 20.2086 15.1182 20.6259C14.1484 21.0433 13.109 21.2519 12 21.2519C10.891 21.2519 9.85158 21.0433 8.88175 20.6259Z" fill="currentColor"/>
</g>
</g>
</svg>
